<svg enable-background="new 0 0 125.1 190.8" viewBox="0 0 125.1 190.8" xmlns="http://www.w3.org/2000/svg"><path d="m34.9 135.4c-.8 0-1.1-.5-1.1-1.3l18.6-79.6c.3-1.3 1.3-1.3 1.6 0l17.3 79.6c0 .8-.3 1.3-1.1 1.3zm33.7-135.1c-3.2 3.2-7.7 6.1-10.9 7.2-1.1.3-1.3.5-1.6 1.6l-38 160.2c-2.9 12.8-6.7 15.2-16.8 16-.8 0-1.3.5-1.3 1.3v2.9c0 .8.5 1.3 1.3 1.3h36.5c.8 0 1.3-.5 1.3-1.3v-2.9c0-.8-.5-1.3-1.3-1.3-13.6 0-14.9-4-12.2-15.2l6.4-27.4c.3-.8.8-1.3 1.6-1.3h38c.8 0 1.3.5 1.6 1.3l7.2 33c1.6 7.2-1.1 8.8-10.1 9.6-.8 0-1.3.5-1.3 1.3v2.9c0 .8.5 1.3 1.3 1.3h53.5c.8 0 1.3-.5 1.3-1.3v-2.9c0-.8-.5-1.3-1.3-1.3-8.2-.8-11.7-2.1-13.3-9.6l-40.3-174.9c-.2-.8-1-1.1-1.6-.5" fill="#ef3b24"/></svg>