<?xml version="1.0" encoding="utf-8"?>
<!-- Svg Vector Icons : http://www.onlinewebfonts.com/icon -->
<!DOCTYPE svg PUBLIC "-//W3C//DTD SVG 1.1//EN" "http://www.w3.org/Graphics/SVG/1.1/DTD/svg11.dtd">
<svg version="1.1" xmlns="http://www.w3.org/2000/svg" xmlns:xlink="http://www.w3.org/1999/xlink" x="0px" y="0px" viewBox="0 0 1000 1000" enable-background="new 0 0 1000 1000" xml:space="preserve">
<metadata> Svg Vector Icons : http://www.onlinewebfonts.com/icon </metadata>
<g><path d="M980.5,934.7L545.8,500L980.5,65.2c12.6-12.6,12.6-33.1,0-45.7c-12.6-12.6-33.1-12.6-45.7,0L500,454.2L65.3,19.4c-12.6-12.6-33.1-12.6-45.7,0c-12.6,12.6-12.6,33.1,0,45.7L454.3,500L19.5,934.8c-12.6,12.6-12.6,33.1,0,45.7c6.3,6.3,14.6,9.5,22.9,9.5s16.6-3.2,22.9-9.5L500,545.7l434.7,434.7c6.3,6.3,14.6,9.5,22.9,9.5s16.6-3.2,22.9-9.5C993.2,967.8,993.2,947.3,980.5,934.7z"/></g>
</svg>