<svg xmlns="http://www.w3.org/2000/svg" xmlns:xlink="http://www.w3.org/1999/xlink" viewBox="0 0 149.4 176"><defs><style>.cls-1{fill:#fff}.cls-2{mask:url(#mask)}.cls-3{fill:#313d3e}.cls-4{fill:#ed1c40}</style><mask id="mask" x="0" y="0" width="151" height="176" maskUnits="userSpaceOnUse"><g id="mask-2"><path id="path-1" class="cls-1" d="M114.27,103.84l.85-.85L110,100l-10,11,1.53,5.42,7.38-7.29,19.14,12.35,8-2.24ZM0,112v-8.29l6.14-3.54-.36-.64,2.36-1.36L7.41,96.9l4.73-2.73-2.5-4.34L0,95.4V0H151V176H0V117H36v-5ZM59,18V42h5V18ZM40,39V63h5V39Zm69.74,92.21-4.95-5L103,128v7l2.48,1Z"/></g></mask></defs><title>Asset 1</title><g id="Layer_2" data-name="Layer 2"><g id="Layer_1-2" data-name="Layer 1"><g id="meetups"><g id="nyc-art"><g id="noun_210015_cc" data-name="noun 210015 cc"><g id="Group"><g id="Shape-_-Shape-Mask" data-name="Shape-+-Shape-Mask"><g class="cls-2"><path id="Shape" class="cls-3" d="M76.67,31.21a71.81,71.81,0,0,0-17.25,2.15c0-2.15-.39-3.71-.59-3.71-1.76-2.34-2.94-3.12-3.92-3.12v-2h2a1.34,1.34,0,0,0,1.38-1.37V17.55a1.34,1.34,0,0,0-.79-1.17c.59-.78-14.9-.2-14.9-.2a1.34,1.34,0,0,0-1.37,1.37v5.66a1.34,1.34,0,0,0,1.37,1.37h2.36v1.17a3.09,3.09,0,0,0-1,2.14,3.28,3.28,0,0,0,.58,1.95,3.18,3.18,0,0,0-.58,1.76,3.28,3.28,0,0,0,.58,1.95,3.3,3.3,0,0,0-.58,2,3.12,3.12,0,0,0,1.56,2.74A72.52,72.52,0,0,0,4,100.68,6,6,0,0,0,0,106a5.33,5.33,0,0,0,2.36,4.68,6.21,6.21,0,0,0,2,1,72.84,72.84,0,0,0,49.2,60.68c.78.2,1.76.59,2.55.78,2.35.78,4.7,1.17,7.06,1.76a11.76,11.76,0,0,0,2.54.39,68.33,68.33,0,0,0,11,.78H80.4c.78,0,1.76-.2,2.54-.2,1.77-.19,3.53-.39,5.1-.58a13,13,0,0,1,2.75-.39c1.37-.2,2.15-.39,3.13-.59a12.24,12.24,0,0,0,2.55-.78c.78-.19,1.76-.58,2.55-.78,1-.39,1.76-.58,2.74-1,.79-.39,1.77-.59,2.55-1A72.44,72.44,0,0,0,76.67,31.21Zm-20.39-.59a12,12,0,0,1,.4,3.52,14.61,14.61,0,0,1-.59,3.9,29.68,29.68,0,0,1-1.18,2.73V29.65h0C55.11,29.45,55.7,29.84,56.28,30.62Zm12,23.23L70.4,55.8c-.39.19-.59.39-1,.58Zm7.45,2.73.39,2.34-1.76.58-1.18-2.14A9.64,9.64,0,0,1,75.69,56.58Zm9.8,1.36-1,2a1.54,1.54,0,0,0-.59-.19c-.19,0-.39-.2-.78-.2L83.53,57A6,6,0,0,1,85.49,57.94Zm5.69,5.27v-.39l1-.19Zm23.33,61.66a.62.62,0,0,1-.2.4c-.2.19-.39.39-.79,0l-2.74-2.15c-.2-.2-.2-.2-.2-.39a.59.59,0,0,1,.2-.39c.2-.2.2-.2.39-.2a.59.59,0,0,1,.39.2l1.38,1.17,1.37,1.17a.19.19,0,0,1,.2.19Zm-11.57,35.71c0-.58-.2-1.17-.2-1.75l.79.19A13.72,13.72,0,0,0,102.94,160.58Zm.2-27.9,1.76,1.17c.2.2.39.2.78.2a1.54,1.54,0,0,0,.79-.39,7,7,0,0,1-2.75,4.29Zm4.9-6.44a.58.58,0,0,1,0-.78c.19-.19.19-.19.39-.19a.62.62,0,0,1,.39.19l2.74,2.15c.2.19.2.19.2.39a.61.61,0,0,1-.2.39c-.19.19-.39.39-.78,0Zm8.62-4.1a.6.6,0,0,1-.19.39.72.72,0,0,1-.59.2l-.2-.2-1.37-1.17-1.37-1.17c-.2-.19-.2-.19-.2-.39a.61.61,0,0,1,.2-.39c.19-.19.19-.19.39-.19a.62.62,0,0,1,.39.19l2.75,2.34A.62.62,0,0,1,116.66,122.14Zm-1.17-4.68a.58.58,0,0,1,0-.78c.19-.2.19-.2.39-.2a.61.61,0,0,1,.39.2L119,119c.2.2.2.2.2.39a.59.59,0,0,1-.2.39c-.19.2-.39.39-.78,0Zm4.11-1.37-1.76-1.56a3.17,3.17,0,0,0-4.51.39,3.54,3.54,0,0,0-.79,1.76,4,4,0,0,0-1.76,1,3.51,3.51,0,0,0-.78,2,7.77,7.77,0,0,0-1.77,1,3.17,3.17,0,0,0-.59,1.76,3.32,3.32,0,0,0-2,1.17,3.16,3.16,0,0,0,.59,4.49l1,.78-2,1.95L102.55,129l-1.77-14.24,8.43-8.78,11.57,8.39Zm-19-4.48-.59-5.27,2.74,3.12Zm2.74,44.68-7.06-1.56,1-.78a1.38,1.38,0,0,0,.59-1.17l-4.11-41.17c0-.39.19-.78.19-1.18a14.86,14.86,0,0,0-.39-3.12c-.39-2-.59-2.73,1.37-4.1a1.17,1.17,0,0,0,.59-1.17l-.39-7.61a6.52,6.52,0,0,1,1.37,3.13ZM83.73,169c-2.16-.2-3.33-1.18-3.73-2l3.73-2.73Zm-3.53-5.47,6.08-41a41.37,41.37,0,0,0,5.09-6.24l3.53,36.1Zm-24.11-2.93,1-16v-.39l-3.14-10.14,23.72-29.47c2.16-2,4.9-4.29,7.06-6.24l-1,23.41L82,133.46ZM84.32,92.09a5.57,5.57,0,0,0,1.56,1.37c-4.5,4.29-11.76,10.93-14.11,12.29-3.33,2.15-15.49,10.54-15.88,10.93a3,3,0,0,1-2.15.58c-1-.58-1.57-2.92-1.77-4.68C54.13,107.9,70.59,98.73,84.32,92.09Zm7.45-.78a4.5,4.5,0,0,1-3.14.59,3.72,3.72,0,0,1-1.76-.78,11.7,11.7,0,0,0,2.74-1.37A5.61,5.61,0,0,1,91.77,91.31Zm.78,10.15c-2.74,2.34-2.35,4.29-1.76,6.44a10.37,10.37,0,0,1,.39,2.73c.19,1.76-2.16,5.07-4.51,7.81l.78-22.64A8.75,8.75,0,0,1,89,94.43h.79a5.4,5.4,0,0,0,2.54-.58Zm-34.7,17.17c1.57-1.17,7.26-5.07,11.37-8L56.68,126.24ZM69.61,77.46h0a2.77,2.77,0,0,1-.78-.59L70,75.12c.19-.2.19-.39.19-.79V72.77a.74.74,0,0,0,.59-.19,6.29,6.29,0,0,0,.39,1.56c0,.39.2.59.39,1h0c0-.2-.19-.39-.19-.59ZM67.46,62l1.37,1.56a2.77,2.77,0,0,0-.59.78.19.19,0,0,1-.19.2l-1.38-1.37A9.48,9.48,0,0,0,67.46,62Zm3.33-3.51L72,60.48c-.4.39-1,.59-1.38,1l-1.37-1.57C69.61,59.5,70.2,59.11,70.79,58.53Zm-.39,7.22A9.9,9.9,0,0,1,79,61.26a28.31,28.31,0,0,1,3.92.78,9.27,9.27,0,0,1,5.3,6.25l-1-.78h0l-.2-.2a34.56,34.56,0,0,1-6.66-4.88,1.53,1.53,0,0,0-1.57-.19l-7.26,5.07a1.08,1.08,0,0,0-.58,1v1.56a5.48,5.48,0,0,1-2.36.19A11.19,11.19,0,0,1,70.4,65.75ZM83.53,75.9a5.21,5.21,0,0,1-4.31,1.75,5.21,5.21,0,0,1-4.31-1.75c-1.77-2-1.77-5.27-1.77-6.64L79,65.16c2.55,2.15,4.9,3.52,5.88,4.3C85.3,71,85.1,74.14,83.53,75.9Zm5.3,0h0l-1.38-2.54a8.55,8.55,0,0,0,.2-2.15l1,.59A37.45,37.45,0,0,1,88.83,75.9ZM87.26,61.85c-.2-.2-.39-.39-.59-.39l.59-1.37.59,1.17ZM72.75,77.26l.39.39h0V79.8c-.39-.2-.78-.59-1.37-1Zm2.94,2.34a9.55,9.55,0,0,0,3.53.59A11.82,11.82,0,0,0,82,79.8v5.66A16,16,0,0,1,75.69,82V79.6Zm9-1.17c.19-.19.59-.39.78-.78.2-.19.39-.58.59-.78l1,1.95a77,77,0,0,1,1.77,7.81,12.57,12.57,0,0,0-4.32-.78l.2-7.42ZM88,56.77a2.62,2.62,0,0,0-.78-.58l2-1.56Zm-9-.58h0a6.18,6.18,0,0,1,2,.19l-.39,2.54c-.39,0-.78-.2-1.17-.2h-.59l-.39-2.53Zm-.39-2.73,1.18-3.32.78,3.51H79C78.83,53.46,78.83,53.46,78.63,53.46ZM64.32,64.58l2.35,2.34L65.5,69.85V70A2.76,2.76,0,0,0,66.28,72l1.18.59v1.17l-1,1.37a12.52,12.52,0,0,1-2.16-1.57c-.19-1.56-.59-5.26-2.74-6.83h0l-2.94-2.34c-.2-1.17-.2-2.34-.39-3.51ZM61,70.24a11.42,11.42,0,0,1,.78,4.09,1.07,1.07,0,0,0,.59,1c.39.2,6.86,4.88,11.18,8.2.58.58,4.9,4.48,9.8,4.87h0a8.59,8.59,0,0,1,2.15.2c-7,3.32-21.17,10.34-29.6,16.59l-1.17-1.56-1-2.35,2-3.31h0l.19-.2L60.6,85.26a1.44,1.44,0,0,0-.79-1.75H59c1.37-1.37,2.35-2.74,2.74-3.13a1.22,1.22,0,0,0-.19-1.75,1.26,1.26,0,0,0-1.77.19c-1.76,2.34-7.25,8.39-10.39,6.44-1.76-1.17-1.76-3.9-1.17-6.44a6.5,6.5,0,0,0,2.35,3.32,1.46,1.46,0,0,0,1.76,0C55.3,79.8,59.23,73.36,61,70.24Zm-9,18c2.16-.39,4.31-2,6.28-3.51L54.32,94.82l-3.13-3.7ZM47.07,27.5h0l3.53.2a.67.67,0,0,1,.39.19.2.2,0,0,1,.2.2.63.63,0,0,1-.59.58h0l-3.53-.19a.64.64,0,0,1-.59-.59C46.68,27.7,46.88,27.5,47.07,27.5Zm1.18,14.25V38.63H51a3.4,3.4,0,0,0,1-.39v3.51H48.25ZM47.07,31.21h0l3.53.2a.62.62,0,0,1,.59.58.42.42,0,0,1-.39.39H47.07a.63.63,0,0,1-.59-.58A.52.52,0,0,1,47.07,31.21Zm0,3.71H51a.41.41,0,0,1,.39.39h0a.62.62,0,0,1-.58.58H47.27a.62.62,0,0,1-.59-.58C46.48,35.11,46.68,34.92,47.07,34.92ZM56.28,73a65,65,0,0,1-4.5,6.24,6.18,6.18,0,0,1-1-2.34c-2-11.9-.59-31.22-.59-31.41a1.72,1.72,0,0,0-.2-1l-.19-.39h2.74a1.09,1.09,0,0,0,1-.59,9.26,9.26,0,0,0-.2,3.32l.2,1.56a172.76,172.76,0,0,1,2.55,18.93L56.28,73ZM43.74,21.84V18.72H55.3v3.12H43.74Zm8.43,2.74v.78A2.8,2.8,0,0,0,50.8,25l-3.14-.2v-.19ZM2.57,106.14a3.52,3.52,0,0,1,3.73-3.32h0a1.31,1.31,0,0,0,1.37-1.17,4.62,4.62,0,0,1,5.49-4.09,1.32,1.32,0,0,0,1.37-.78c0-.2,1.57-3.52,4.9-3.52a7,7,0,0,1,2.75.59,7.4,7.4,0,0,1,3.72,5.07,1.75,1.75,0,0,0,1.18,1.17c.19,0,4.11.39,4.31,4.3a5.3,5.3,0,0,1-1.37,3.9,5.63,5.63,0,0,1-3.14,1.56H7.47A5.47,5.47,0,0,1,4,108.68,3.08,3.08,0,0,1,2.57,106.14Zm5.3,6.25h19a7.56,7.56,0,0,0,4.9-2.35,7.11,7.11,0,0,0,2.16-5.85,7,7,0,0,0-5.69-6.63,9.39,9.39,0,0,0-5.09-6,10,10,0,0,0-3.92-.78A7.71,7.71,0,0,0,12.37,95a6.45,6.45,0,0,0-4.7,1.56A69.34,69.34,0,0,1,45.5,42.14v1c0,.39.2.59.2.78h0l1.57,2a200.27,200.27,0,0,0,0,27.31c-.59,1.57-4.71,10.93.59,14.25L49,88l-.59,3.32a2.42,2.42,0,0,0,.2,1.17L53,97.56l-1.76,3.12a1.22,1.22,0,0,0,0,1.17L52.36,105a.2.2,0,0,0,.2.2l1.37,1.75c-2.15,2-3.92,3.71-4.31,5.27v.39c0,.59.2,5.66,3.14,7.22a3.85,3.85,0,0,0,1.76.39h.59l-1.57,10.54-2,2.34a.72.72,0,0,0-.39,1l3.13,10.53-1,19.32a1.48,1.48,0,0,0,.79,1.37c.19,0,.39.19.59.19-.2,1-.4,2.15-.59,3.52A69.31,69.31,0,0,1,7.87,112.39Zm48.61,57.37c.59-3.52,1.18-6.25,1.37-7L70,149.85c-2,8.39-4.12,16.59-5.88,21.66A54.06,54.06,0,0,1,56.48,169.76Zm20.19,2.92a54.89,54.89,0,0,1-9.8-.78c2.55-7.61,5.29-19.51,6.86-26l7.65-8-4.32,28.49V167h0c.4,1.56,2.16,4.3,6.28,4.69-.2.19-.4.58-.59.78C80.79,172.49,78.63,172.68,76.67,172.68Zm9.41-.58a5.58,5.58,0,0,0,.39-1.76v-8.19l2.94-2.35c-.19,3.13-.39,7.42-.78,11.71C87.65,171.71,86.87,171.9,86.08,172.1Zm7.84-1.56c-.78.19-1.76.39-2.55.58h0L92,158.05l-.39.19.59-.39,1.37-1h.39l1.37.19,1,12.69A11.17,11.17,0,0,1,93.92,170.54Zm4.9-1.56L98,157.66l2.15.39c.2,1.75.79,5.46,1.38,9.95C100.39,168.39,99.61,168.78,98.82,169Zm5.1-2c-.2-.78-.2-1.56-.39-2.34a13.52,13.52,0,0,0,2.74-6.63l-2.15-17.17c4.5-2.35,5.48-7.22,5.29-10,.78,0,1.17.2,1.76.2a2.94,2.94,0,0,0,3.14-2.93,3.29,3.29,0,0,0,2-1.17,3.14,3.14,0,0,0,.59-1.75,4.41,4.41,0,0,0,1.57-1,3.52,3.52,0,0,0,.78-1.76,7.51,7.51,0,0,0,1.76-1,3.4,3.4,0,0,0,.79-2.34,8.61,8.61,0,0,0-.2-1l2.55-2.73a1.49,1.49,0,0,0,.39-1,1,1,0,0,0-.59-1l-13.72-10a1.23,1.23,0,0,0-1.76.19l-3.73,3.9-5.09-6L99,97.56a8.46,8.46,0,0,0-2.55-5.08l-2.94-2.92a10.94,10.94,0,0,0-1.76-1.37c.19-1-.2-3.32-1.77-9A6.82,6.82,0,0,1,91.18,78c.39-.39.78-1,.19-6.44A16.69,16.69,0,0,0,91,68.29a3.63,3.63,0,0,0,.39-1.57l9-5.46A1.3,1.3,0,0,0,101,59.7a1.24,1.24,0,0,0-1.57-.78l-9,1.95-.58-1.17,5.29-9a1.18,1.18,0,0,0-.2-1.56,1.46,1.46,0,0,0-1.76,0L84.9,55.41c-.39-.2-1-.39-1.37-.59l-2.15-9a1.25,1.25,0,0,0-1.18-1,1.46,1.46,0,0,0-1.37,1l-2.94,8.78a11.18,11.18,0,0,0-2.75.78L65.3,48.19a1.46,1.46,0,0,0-1.76,0,1.21,1.21,0,0,0-.39,1.56l4.5,9.36a10.12,10.12,0,0,0-1.37,1.57l-8-2c-.59-3.7-1.18-7-1.57-9.17L56.48,48a7.29,7.29,0,0,1,.59-4.1c1.37-2,2-4.9,2.35-6.65a66.42,66.42,0,0,1,17.64-2.35c38.23,0,69.2,32,69.2,69.89C145.87,132.09,128.62,156.49,103.92,167Z"/></g><g class="cls-2"><path id="Shape-2" data-name="Shape" class="cls-3" d="M128.45,73.29a5.85,5.85,0,0,0-2.54-5.47,7.22,7.22,0,0,0-5.3-1.17A6.77,6.77,0,0,0,116.3,69c-.39,0-.78-.19-1.18-.19a6.12,6.12,0,0,0-4.31,1.76,6,6,0,0,0-1.76,3.12A4.9,4.9,0,0,0,105.91,79c.2,3.91,4.32,5,6.09,5h13.91a6.06,6.06,0,0,0,5.68-4.65c0-.39.2-.59.2-1C132.18,76.61,131.2,74.27,128.45,73.29Zm1,5.67c-.58,2.34-2.15,3-2.35,3H112c-.39,0-2.94-.7-2.94-3A2.68,2.68,0,0,1,110.81,76,1.47,1.47,0,0,0,112,74.66a2.91,2.91,0,0,1,1-2.15,3.67,3.67,0,0,1,2.35-1,4.71,4.71,0,0,1,1.37.2,1.58,1.58,0,0,0,1.77-.59,3.55,3.55,0,0,1,2.94-2,5,5,0,0,1,3.33.78c2,1.37,1.18,3.91,1.18,3.91-.2.39,0,.78.19,1.17a1.09,1.09,0,0,0,1,.59,2.57,2.57,0,0,1,2.55,2.93C129.43,78.76,129.43,78.76,129.43,79Z"/></g></g></g></g><circle id="Oval-3" class="cls-3" cx="40" cy="43" r="2"/><circle id="Oval-3-Copy" class="cls-3" cx="65" cy="34" r="2"/><circle id="Oval-3-Copy-2" class="cls-3" cx="7" cy="118" r="2"/><circle id="Oval-3-Copy-3" class="cls-3" cx="7" cy="91" r="2"/><path id="Combined-Shape" class="cls-4" d="M43,16s-1-5,0-7a14.45,14.45,0,0,0,2-7c0-3,1,3,3,3s4-5,4-5,3,5,3,7a4.38,4.38,0,0,1-1,3s3-1,3-3,3,4,2,6l-2,4H44Zm2.92-7.06c-2,3.67-.41,6.12.62,6.94h6.55a5.33,5.33,0,0,0,3.07-3.27,8.85,8.85,0,0,0,0-3.26c-1,1.22-1.64,1.83-1.64,1.83a1.31,1.31,0,1,1-2.05-1.63c.62-.81,0-3.06-.82-5.3a29.52,29.52,0,0,0-1.43,5.1,1.41,1.41,0,0,1-1.64,1c-.82-.21-1.43-.82-1.22-1.63A2.85,2.85,0,0,0,47,6.49,16.7,16.7,0,0,1,45.92,8.94Z"/><path id="Rectangle-5" class="cls-4" d="M101.93,112.46s0,0,0,0a1.43,1.43,0,0,1-.27.66l.27-.34Zm0,.46c0,.15,0,.32,0,.49s0,.34,0,.42l-2,.17a8.86,8.86,0,0,1,0-2c.14-.22,6.12-7.66,6.12-7.66a3.09,3.09,0,0,1,4.26-.52l11.73,8.94a2.52,2.52,0,0,1,.24,3.92L121,118l-1.4-1.43,1.35-1.32a.53.53,0,0,0,0-.9l-11.73-8.94a1.09,1.09,0,0,0-1.49.18l-.26.33-.7.86c-.71.9-1.43,1.79-2.1,2.63-1.14,1.42-2.21,2.75-2.69,3.36A.76.76,0,0,0,101.94,112.92Zm0-.46s0,0,0,0a1.43,1.43,0,0,1-.27.66l.27-.34Z"/><path id="Rectangle-5-Copy" class="cls-4" d="M107.38,129.78,109,131l-1.78.91-.56-1.1Zm-3.16,2.1-2,.23,1.05-1.7.82.51Zm2-2L108,129l1,2-.92,1.26a3.27,3.27,0,0,1-4.31.84l-1.53-.95L102,130l2-.23.13,1.15.71.44a1.27,1.27,0,0,0,1.64-.32l.2-.27Zm-2.93.5-1.05,1.7,2-.23-.11-1Zm4.09-.63L109,131l-1.78.91-.56-1.1Zm-2.56,1.58a1.27,1.27,0,0,0,1.64-.32l.2-.27-.44-.86L108,129l1,2-.92,1.26a3.27,3.27,0,0,1-4.31.84l-1.53-.95L102,130l2-.23.13,1.15Z"/></g></g></g></g></svg>