<svg enable-background="new 0 0 700 750" viewBox="0 0 700 750" xmlns="http://www.w3.org/2000/svg"><g fill="#000"><path d="m166.7 451.9c-8.4 0-16 4.5-21.9 11.9 5.8 7.4 13.5 11.9 21.9 11.9s16-4.5 21.9-11.9c-5.8-7.3-13.5-11.9-21.9-11.9z"/><path d="m322.2 158.9h3.9 21.3c3.5 0 7.5-2.3 9.2-5.3l9.7-16.9-13.8 7.8c-1.3.6-3.8 1.1-5.2 1.1h-25-.3c-3.4 0-7.4 2.4-9.1 5.3l-9.7 16.9 13.8-7.8c1.2-.5 3.7-1.1 5.2-1.1z"/><path d="m336.7 462.8c5.3 0 9.7-4.3 9.7-9.6 0-5.4-4.3-9.7-9.7-9.7-5.3 0-9.7 4.3-9.7 9.7 0 5.2 4.4 9.6 9.7 9.6z"/><path d="m621.3 206.3h.1c-49.1-67.2-122.5-115.4-207.1-131.9v-48.1s-11.4 12.5-28.8 8.7c-23-5-35.6-31.9-35.6-31.9-.8 3.2-9.6 30.7-29 37.8-16.5 6.1-31-7.2-31-7.2s0 .1 0 .4c0 0-.1-.1-.1-.1l.1.2v7.3c0 6-4.6 12.9-10.2 15.4l-28.4 12.4c-6.9 2.8-12.9 10.8-13.7 18.3-32 11.4-61.7 27.4-88.3 47.4l-9.9-17.2 7.1-4.1-32.7-20.1 1.1 38.4 7.3-4.2 50 86.6-22.7 39-76-133.7 7.2-4.2-32.8-20.1 1.1 38.4 7.2-4.1 75.4 132.8-42.7.1-50-86.6 7.2-4.2-32.7-20.1 1.1 38.4 7.1-4.1 32.4 56.2c-27.3 48.6-43 105-43 165 0 186.8 152 338.7 338.8 338.7s338.7-152 338.7-338.7c0-75.2-25.5-144.7-67.2-200.9zm20.9 70.6c11.8 26.3 20.1 54.6 24.4 84.1-12.2-2.8-22.6-10.1-28.8-20.5-4.3-7.3-15.3-26.7-22.2-38.9 11.6-4.4 21.4-13.3 26.6-24.7zm-47-74.1c-7.4-.1-47.9 0-47.9 0-23.9.2-45.6 13.6-56.5 31.9-5.7 9.6-10.5 17.3-24.6 41.8-10.7-6.7-20.8-12.9-28.3-17.6 2.8-.8 6.1-2.3 10.7-5 14.3-8.4 21.2-21.2 21.2-21.2-.4.1-6.5.1-8.4 0-1.9 0-5.2-1.1-7.3-2.4l-20-12.3-12.1-68.3 3.1-26.4-4.9-20.1h.2l-.2-.1-2.6-9c70.8 15.5 132.9 54.6 177.6 108.7zm-228.4 140.8-48.9-87.2c5.2 2.2 10.9 3.3 16.8 3.3 6.9 0 13.8-1.6 19.5-4.5l55.1 98.3c3.8 5.7 5.8 12.4 5.8 19.4 0 19.3-15.7 35.1-35.1 35.1v.1h-17.8c8.2-9.5 13.2-21.8 13.2-35.2.2-10.4-2.8-20.6-8.6-29.3zm-45.4-105.3 49.7-30.8v17.3l-23.3 13.8c-7.3 4.4-18.5 4.7-26.4-.3zm48.9 7.6 9.4-5.6 22.7 13.4c3.4 2.1 7.3 3.6 11.4 4.6l28.9 48.8c3.3 5.6 3.4 15.9.2 21.7l-13 24.2c-1.3-3.2-2.9-6.4-4.8-9.3zm18.1-21.1v-17.3l49.7 30.8c-7.9 5-19.1 4.7-26.5.2zm26.6-18.6-14.4-8.6-13.6-38.7s17.5-.2 18.5 0zm-14.8-100.9 6.4 20.9-1.8 19.7c-.2 0-.5-.1-.7-.1h-22.6v3.2 35l-70.7 44.1c-1 .8-2.3 1.3-3.7 1.3-2.1 0-5-1.6-6.1-3.3l.3.6-8.7-15.6v-80c26.3-12.1 64-21.5 104.1-25.5zm-144.5-14.2c0-1.7 1.2-3.4 2.9-4.3 2.5-1 22.5-8.9 29.9-12.3 6.5-2.9 10.9-8.4 13.6-12.8 2.8.5 6 .6 7.3.6 6.3 0 11.6-1.1 18.4-3.8 9.4-3.7 17.9-10.5 25.1-20.2 8.7 7.9 18.2 13 28.4 15.2 3.5.8 7 1.1 10.5 1.1 1.1 0 2.3-.1 3.3-.1v33.3c-55.5 5.5-105.5 20.3-133.5 39.7l-6.1 3.8zm0 62.9 18.1-12.4c.1-.1.2-.1.2-.2v74.6l77.2 137.6c3.8 5.7 5.8 12.4 5.8 19.4 0 19.2-15.5 35.1-34.7 35.2h-18.5c8.2-9.5 13.2-21.8 13.2-35.2 0-10.5-3-20.6-8.7-29.3 0 0-47.3-84.8-49.7-88.8-2.4-4.1-2.9-11.6-2.9-16.2zm-2.2 129.9c15.2 27.1 39.1 69.7 39.1 69.7 3.8 5.7 5.8 12.4 5.8 19.4 0 19.2-15.6 35.1-34.7 35.2h-25.8l-49-85.6 6.2-3.1zm-38.5 124.3h-109.6v-11.4c0-35.7 28.9-64.7 64.5-64.9l1.1-.5zm-19.9-193.8-36.5-63.2c23.9-18.1 50.4-32.9 78.8-43.7v4.4 54.4l-.1.3.1-.1v72.1c0 5.5.8 17.6 4 23.6.4.8 1.6 3 3.4 6.2l-64.4 39.4-19.7-34.5zm-130 46.5 12.4 21.5h65.4l18.6 32.5c-41.3 4.4-73.7 39.7-73.7 82v7.6l-27.6-47-8.1 5.3c-.8.5-14.4 9.5-22 27.4 2.5-46.5 14.8-90.3 35-129.3zm3.5 147.3h-24.5c1.5-10.6 6.4-18.3 10.7-23.3zm-24.3 95c-11.4-38.6-13.5-69-13.5-69-.3-4 2.8-7.2 6.7-7.2h35c-10.5 12.3-23.4 36-27.6 78-.2-.6-.4-1.2-.6-1.8zm52.7 100.2c-8.6-11.6-20.1-29.5-33.9-53.7-.1-.2-.2-.5-.4-.7-2.9-64.5 12.1-93.4 22.9-107.4v49.2c0 4.1-1.4 61.5 16.1 118.7-1.5-2.1-3.1-4.1-4.7-6.1zm252.8 123.9c-40.1 0-78.7-6.9-113.9-20.9-45.6-18.1-98.9-43.2-119.7-121.4-12.8-48.4-10.6-93.3-10.6-94.1v-63.2h264.1v33.6c0 7.9-6.7 16.9-14.3 19.1l-110.6 32.4v7.4c0 26.6-21.6 48.2-48.2 48.2l115.4 118.3-68.8-117c11.5-10.8 19.2-25.5 21-42l16.4-4.8 4.8 8.5-21.6 37.4 46.9 80 46.9 8.6 37.2 66.6c-14.7 2.2-29.7 3.3-45 3.3zm65.8-6.9-32.5-58.3 125.2 23c-28.4 16.3-59.6 28.4-92.7 35.3zm170.3-97.5h-91.5l11 18.5h62.2c-11.2 10.5-23.2 20.1-35.9 28.9l-209.3-38.2-37.1-63.3 10.8-18.6 12.9 22.6c1.8 3.2 5.2 5 8.6 5 1.7 0 3.4-.4 4.9-1.3 4.8-2.7 6.4-8.8 3.7-13.5l-7.4-13h43.2l30.8 54.3v-26.3h124l-30.3-136.2-28.1 49.6c-2.1 3.8-8.4 7.4-12.7 7.4h-53.3l11.9 19.9h41.4c11.4 0 24.4-7.5 30-17.5l10.7-19v77.5h-97.3l-15.7-29.1h-65.6l-7.6-13.4 60.7-17.8c16-4.7 28.6-21.5 28.6-38.2v-6.5-28.8c18.8-2.7 31.3-14.3 43.6-37 14.2-26.3 26-51.1 26-51.1 6.5-11.5 6.3-28.8-.4-40.1l-4.4-7.4 53.1 33.9-21.4 10.8h43.6c35.6 0 64.6 28.9 64.6 64.6v41.7l31.9 127.3c-11.5 19.6-25 37.7-40.2 54.3zm26.5-183.9v-39.4c0-45.5-36.8-82.5-82.2-82.8 0 0-22.7-14.3-47.1-29.6 6.4-11.4 19.8-35 24.7-43.2 7.9-13.5 23-21.8 39.9-21.8 0 0 25.7-.1 40.8 0 20.6.1 37.8 13.6 37.4 36.1-.4 27.6-29.1 27-29.1 27l1.1-2c8.6-15.4 2.2-29.5 2-30.1l-1.3-2.8s-6.3 36.6-36 36c0 0-15.9 2-21.7-12.3-2.4-5.9-2-12.7 1.8-18.3 1.9-2.8 5.8-5 9.4-5 3 0 5.6 1.2 7.7 3 0 0 .1 0 .1.1 2.2 2.1 3.6 5 3.6 8.3s-1.4 6.3-3.7 8.4c2 .2 4.6 0 7.6-1.6 5.8-3.1 8.1-9.2 6.3-15.1-1.6-5.1-4.2-8.6-7.9-11.3-11.7-8.4-28-5.7-36.4 5.9-6.5 9.1-7.7 18.9-4.5 30.4 4 14.8 21.3 25.7 41.6 25.7h28.1c14.4 25 20.6 35.5 26.3 45.2 9.6 16.1 27.6 28.4 48 31.2.7 8.7 1.1 17.4 1.1 26.3 0 48.9-11.1 95.3-30.8 136.9z"/></g></svg>
