<?xml version="1.0" encoding="utf-8"?>
<!-- Generator: Adobe Illustrator 20.1.0, SVG Export Plug-In . SVG Version: 6.00 Build 0)  -->
<svg version="1.1" id="Layer_1" xmlns="http://www.w3.org/2000/svg" xmlns:xlink="http://www.w3.org/1999/xlink" x="0px" y="0px"
	 viewBox="0 0 700 750" style="enable-background:new 0 0 700 750;" xml:space="preserve">
<style type="text/css">
	.st0{fill:#FF0000;}
</style>
<g>
	<path class="st0" d="M166.7,451.9c-8.4,0-16,4.5-21.9,11.9c5.8,7.4,13.5,11.9,21.9,11.9c8.4,0,16-4.5,21.9-11.9
		C182.8,456.5,175.1,451.9,166.7,451.9z"/>
	<path class="st0" d="M322.2,158.9h3.9h21.3c3.5,0,7.5-2.3,9.2-5.3l9.7-16.9l-13.8,7.8c-1.3,0.6-3.8,1.1-5.2,1.1h-25l-0.3,0
		c-3.4,0-7.4,2.4-9.1,5.3l-9.7,16.9l13.8-7.8C318.2,159.5,320.7,158.9,322.2,158.9z"/>
	<path class="st0" d="M336.7,462.8c5.3,0,9.7-4.3,9.7-9.6c0-5.4-4.3-9.7-9.7-9.7c-5.3,0-9.7,4.3-9.7,9.7
		C327,458.4,331.4,462.8,336.7,462.8z"/>
	<path class="st0" d="M621.3,206.3h0.1C572.3,139.1,498.9,90.9,414.3,74.4V26.3c0,0-11.4,12.5-28.8,8.7c-23-5-35.6-31.9-35.6-31.9
		c-0.8,3.2-9.6,30.7-29,37.8c-16.5,6.1-31-7.2-31-7.2s0,0.1,0,0.4c0,0-0.1-0.1-0.1-0.1l0.1,0.2c0,1.3,0,2.4,0,7.3
		c0,6-4.6,12.9-10.2,15.4l-28.4,12.4c-6.9,2.8-12.9,10.8-13.7,18.3c-32,11.4-61.7,27.4-88.3,47.4l-9.9-17.2l7.1-4.1l-32.7-20.1
		l1.1,38.4l7.3-4.2l50,86.6l-22.7,39l-76-133.7l7.2-4.2L47.9,95.4l1.1,38.4l7.2-4.1l75.4,132.8l-42.7,0.1l-50-86.6l7.2-4.2
		l-32.7-20.1l1.1,38.4l7.1-4.1l32.4,56.2C26.7,290.8,11,347.2,11,407.2c0,186.8,152,338.7,338.8,338.7
		c186.8,0,338.7-152,338.7-338.7C688.5,332,663,262.5,621.3,206.3z M642.2,276.9c11.8,26.3,20.1,54.6,24.4,84.1
		c-12.2-2.8-22.6-10.1-28.8-20.5c-4.3-7.3-15.3-26.7-22.2-38.9C627.2,297.2,637,288.3,642.2,276.9z M595.2,202.8
		c-7.4-0.1-47.9,0-47.9,0c-23.9,0.2-45.6,13.6-56.5,31.9c-5.7,9.6-10.5,17.3-24.6,41.8c-10.7-6.7-20.8-12.9-28.3-17.6
		c2.8-0.8,6.1-2.3,10.7-5c14.3-8.4,21.2-21.2,21.2-21.2c-0.4,0.1-6.5,0.1-8.4,0c-1.9,0-5.2-1.1-7.3-2.4l-20-12.3l-12.1-68.3
		l3.1-26.4l-4.9-20.1l0.2,0l-0.2-0.1l-2.6-9C488.4,109.6,550.5,148.7,595.2,202.8z M366.8,343.6l-48.9-87.2
		c5.2,2.2,10.9,3.3,16.8,3.3c6.9,0,13.8-1.6,19.5-4.5l55.1,98.3c3.8,5.7,5.8,12.4,5.8,19.4c0,19.3-15.7,35.1-35.1,35.1v0.1h-17.8
		c8.2-9.5,13.2-21.8,13.2-35.2C375.6,362.5,372.6,352.3,366.8,343.6z M321.4,238.3l49.7-30.8v17.3l-23.3,13.8
		C340.5,243,329.3,243.3,321.4,238.3z M370.3,245.9l9.4-5.6l22.7,13.4c3.4,2.1,7.3,3.6,11.4,4.6l28.9,48.8
		c3.3,5.6,3.4,15.9,0.2,21.7L429.9,353c-1.3-3.2-2.9-6.4-4.8-9.3L370.3,245.9z M388.4,224.8v-17.3l49.7,30.8
		c-7.9,5-19.1,4.7-26.5,0.2L388.4,224.8z M415,206.2l-14.4-8.6L387,158.9c0,0,17.5-0.2,18.5,0L415,206.2z M400.2,105.3l6.4,20.9
		l-1.8,19.7c-0.2,0-0.5-0.1-0.7-0.1h-22.6v3.2v35l-70.7,44.1c-1,0.8-2.3,1.3-3.7,1.3c-2.1,0-5-1.6-6.1-3.3l0.3,0.6l-8.7-15.6v-80
		c26.3-12.1,64-21.5,104.1-25.5L400.2,105.3z M255.7,91.1c0-1.7,1.2-3.4,2.9-4.3l0,0c2.5-1,22.5-8.9,29.9-12.3
		c6.5-2.9,10.9-8.4,13.6-12.8c2.8,0.5,6,0.6,7.3,0.6c6.3,0,11.6-1.1,18.4-3.8c9.4-3.7,17.9-10.5,25.1-20.2
		c8.7,7.9,18.2,13,28.4,15.2c3.5,0.8,7,1.1,10.5,1.1c1.1,0,2.3-0.1,3.3-0.1l0,33.3c-55.5,5.5-105.5,20.3-133.5,39.7l-6.1,3.8
		L255.7,91.1L255.7,91.1z M255.7,154l18.1-12.4c0.1-0.1,0.2-0.1,0.2-0.2V216l77.2,137.6c3.8,5.7,5.8,12.4,5.8,19.4
		c0,19.2-15.5,35.1-34.7,35.2h-18.5c8.2-9.5,13.2-21.8,13.2-35.2c0-10.5-3-20.6-8.7-29.3c0,0-47.3-84.8-49.7-88.8
		c-2.4-4.1-2.9-11.6-2.9-16.2L255.7,154L255.7,154z M253.5,283.9c15.2,27.1,39.1,69.7,39.1,69.7c3.8,5.7,5.8,12.4,5.8,19.4
		c0,19.2-15.6,35.1-34.7,35.2h-25.8l-49-85.6l6.2-3.1L253.5,283.9z M215,408.2H105.4v-11.4c0-35.7,28.9-64.7,64.5-64.9l1.1-0.5
		L215,408.2z M195.1,214.4l-36.5-63.2c23.9-18.1,50.4-32.9,78.8-43.7v4.4v54.4l-0.1,0.3l0.1-0.1v72.1c0,5.5,0.8,17.6,4,23.6
		c0.4,0.8,1.6,3,3.4,6.2l-64.4,39.4l-19.7-34.5L195.1,214.4z M65.1,260.9l12.4,21.5h65.4l18.6,32.5c-41.3,4.4-73.7,39.7-73.7,82v7.6
		l-27.6-47l-8.1,5.3c-0.8,0.5-14.4,9.5-22,27.4C32.6,343.7,44.9,299.9,65.1,260.9z M68.6,408.2H44.1c1.5-10.6,6.4-18.3,10.7-23.3
		L68.6,408.2z M44.3,503.2c-11.4-38.6-13.5-69-13.5-69c-0.3-4,2.8-7.2,6.7-7.2h35C62,439.3,49.1,463,44.9,505
		C44.7,504.4,44.5,503.8,44.3,503.2z M97,603.4c-8.6-11.6-20.1-29.5-33.9-53.7c-0.1-0.2-0.2-0.5-0.4-0.7
		c-2.9-64.5,12.1-93.4,22.9-107.4v49.2c0,4.1-1.4,61.5,16.1,118.7C100.2,607.4,98.6,605.4,97,603.4z M349.8,727.3
		c-40.1,0-78.7-6.9-113.9-20.9c-45.6-18.1-98.9-43.2-119.7-121.4c-12.8-48.4-10.6-93.3-10.6-94.1v-63.2h264.1v33.6
		c0,7.9-6.7,16.9-14.3,19.1l-110.6,32.4v7.4c0,26.6-21.6,48.2-48.2,48.2L312,686.7l-68.8-117c11.5-10.8,19.2-25.5,21-42l16.4-4.8
		l4.8,8.5l-21.6,37.4l46.9,80l46.9,8.6l37.2,66.6C380.1,726.2,365.1,727.3,349.8,727.3z M415.6,720.4l-32.5-58.3l125.2,23
		C479.9,701.4,448.7,713.5,415.6,720.4z M585.9,622.9h-91.5l11,18.5h62.2c-11.2,10.5-23.2,20.1-35.9,28.9l-209.3-38.2l-37.1-63.3
		l10.8-18.6l12.9,22.6c1.8,3.2,5.2,5,8.6,5c1.7,0,3.4-0.4,4.9-1.3c4.8-2.7,6.4-8.8,3.7-13.5l-7.4-13H362l30.8,54.3v-26.3h124
		l-30.3-136.2l-28.1,49.6c-2.1,3.8-8.4,7.4-12.7,7.4h-53.3l11.9,19.9h41.4c11.4,0,24.4-7.5,30-17.5l10.7-19v77.5h-97.3l-15.7-29.1
		h-65.6l-7.6-13.4l60.7-17.8c16-4.7,28.6-21.5,28.6-38.2v-6.5h0v-28.8c18.8-2.7,31.3-14.3,43.6-37c14.2-26.3,26-51.1,26-51.1
		c6.5-11.5,6.3-28.8-0.4-40.1l-4.4-7.4l53.1,33.9L486,335h43.6c35.6,0,64.6,28.9,64.6,64.6v41.7l31.9,127.3
		C614.6,588.2,601.1,606.3,585.9,622.9z M612.4,439v-39.4c0-45.5-36.8-82.5-82.2-82.8c0,0-22.7-14.3-47.1-29.6
		c6.4-11.4,19.8-35,24.7-43.2c7.9-13.5,23-21.8,39.9-21.8c0,0,25.7-0.1,40.8,0c20.6,0.1,37.8,13.6,37.4,36.1
		c-0.4,27.6-29.1,27-29.1,27l1.1-2c8.6-15.4,2.2-29.5,2-30.1l-1.3-2.8c0,0-6.3,36.6-36,36c0,0-15.9,2-21.7-12.3
		c-2.4-5.9-2-12.7,1.8-18.3c1.9-2.8,5.8-5,9.4-5c3,0,5.6,1.2,7.7,3c0,0,0.1,0,0.1,0.1c2.2,2.1,3.6,5,3.6,8.3c0,3.3-1.4,6.3-3.7,8.4
		c2,0.2,4.6,0,7.6-1.6c5.8-3.1,8.1-9.2,6.3-15.1c-1.6-5.1-4.2-8.6-7.9-11.3c-11.7-8.4-28-5.7-36.4,5.9c-6.5,9.1-7.7,18.9-4.5,30.4
		c4,14.8,21.3,25.7,41.6,25.7c10.8,0,17.4,0,28.1,0c14.4,25,20.6,35.5,26.3,45.2c9.6,16.1,27.6,28.4,48,31.2
		c0.7,8.7,1.1,17.4,1.1,26.3c0,48.9-11.1,95.3-30.8,136.9L612.4,439z"/>
</g>
</svg>
